<svg width="46" height="48" viewBox="0 0 46 48" fill="none" xmlns="http://www.w3.org/2000/svg">
<path d="M26.012 0.977615C24.9566 0.338112 23.7461 0 22.5121 0C21.2781 0 20.0676 0.338112 19.0122 0.977615L3.25375 10.5288C2.26071 11.1305 1.43957 11.9781 0.86962 12.9897C0.299669 14.0013 0.000156634 15.1427 0 16.3039V31.6961C0.000156634 32.8573 0.299669 33.9987 0.86962 35.0103C1.43957 36.0219 2.26071 36.8695 3.25375 37.4712L19.0122 47.0224C20.0676 47.6619 21.2781 48 22.5121 48C23.7461 48 24.9566 47.6619 26.012 47.0224L41.7705 37.4712C42.7635 36.8695 43.5847 36.0219 44.1546 35.0103C44.7246 33.9987 45.0241 32.8573 45.0242 31.6961V16.3039C45.0241 15.1427 44.7246 14.0013 44.1546 12.9897C43.5847 11.9781 42.7635 11.1305 41.7705 10.5288L26.012 0.977615Z" fill="#FCCEE8"/>
<circle cx="22.4652" cy="23.9531" r="17.4938" fill="#FB64B6"/>
<path d="M21.0583 13.7758H18.8774C18.299 13.7758 17.7443 14.0055 17.3353 14.4145C16.9263 14.8235 16.6965 15.3782 16.6965 15.9566V31.9496C16.6965 32.528 16.9263 33.0827 17.3353 33.4917C17.7443 33.9007 18.299 34.1305 18.8774 34.1305H26.1469C26.7253 34.1305 27.28 33.9007 27.689 33.4917C28.098 33.0827 28.3278 32.528 28.3278 31.9496V15.9566C28.3278 15.3782 28.098 14.8235 27.689 14.4145C27.28 14.0055 26.7253 13.7758 26.1469 13.7758H23.9661M21.0583 13.7758V15.2297H23.9661V13.7758M21.0583 13.7758H23.9661M21.0583 31.9496H23.9661" stroke="white" stroke-width="1.45391" stroke-linecap="round" stroke-linejoin="round"/>
</svg>
