<svg width="46" height="49" viewBox="0 0 46 49" fill="none" xmlns="http://www.w3.org/2000/svg">
<path d="M26.4046 0.992372C25.3333 0.343215 24.1046 0 22.8519 0C21.5993 0 20.3705 0.343215 19.2992 0.992372L3.30286 10.6877C2.29483 11.2985 1.4613 12.1589 0.882746 13.1857C0.304192 14.2126 0.000158998 15.3713 0 16.55V32.1746C0.000158998 33.3532 0.304192 34.5119 0.882746 35.5388C1.4613 36.5657 2.29483 37.426 3.30286 38.0368L19.2992 47.7321C20.3705 48.3813 21.5993 48.7245 22.8519 48.7245C24.1046 48.7245 25.3333 48.3813 26.4046 47.7321L42.401 38.0368C43.409 37.426 44.2425 36.5657 44.8211 35.5388C45.3996 34.5119 45.7037 33.3532 45.7038 32.1746V16.55C45.7037 15.3713 45.3996 14.2126 44.8211 13.1857C44.2425 12.1589 43.409 11.2985 42.401 10.6877L26.4046 0.992372Z" fill="#C6D2FF"/>
<circle cx="22.8043" cy="24.3147" r="17.7578" fill="#7C86FF"/>
<path d="M27.2824 19.8496L31.7606 24.3278L27.2824 28.8059M18.3262 28.8059L13.848 24.3278L18.3262 19.8496M24.7235 17.2907L20.8851 31.3649" stroke="white" stroke-width="1.27947" stroke-linecap="round" stroke-linejoin="round"/>
</svg>
